<?xml version="1.0" encoding="utf-8"?>
<!-- Generator: Adobe Illustrator 26.0.3, SVG Export Plug-In . SVG Version: 6.00 Build 0)  -->
<svg version="1.1" id="Layer_1" xmlns="http://www.w3.org/2000/svg" xmlns:xlink="http://www.w3.org/1999/xlink" x="0px" y="0px"
	 viewBox="0 0 1085 1085" style="enable-background:new 0 0 1085 1085;" xml:space="preserve">
<style type="text/css">
	.st0{fill:none;stroke:#FFFFFF;stroke-width:31;stroke-miterlimit:10;}
	.st1{fill:none;stroke:#0000FF;stroke-miterlimit:10;}
</style>
<g>
	<path class="st0" d="M459.1,1000c-89,0-166.5-15.9-230.7-47.3c-72.6-35.5-109.4-84-109.4-143.9c0-30.1,9.3-57.3,27.6-80.8
		c18.8-24.1,44.1-36.2,75.4-36.2c23,0,40.9,4.9,53.4,14.6c12.2,9.4,18.4,21.2,18.4,35.2c0,12.3-1.3,21.7-3.9,28.1
		c-2.6,6.4-7.2,12.6-13.5,18.4c-4.2,3.9-7.5,5.5-10.9,5.5c-3.4,0-5.4-1-9.8-10.8c-2.8-6.1-6.7-11.1-11.7-15.1
		c-6.6-5.6-14.2-8.2-23.5-8.2c-13.5,0-24.1,5.8-31.6,17.3c-7.9,12.1-11.9,26-11.9,41.4c0,45.7,28.9,81.7,85.9,107.1
		c48.5,21.7,108.8,32.7,179,32.7c124.2,0,231-31.3,317.5-92.8c92-65.2,138.6-150.6,138.6-253.6c0-33.1-8.7-64.2-25.8-92.2
		c-16.4-26.8-38.4-48.1-65.3-63.4c-18.2,18.6-41.7,34.9-69.5,48.9c-34.6,17.4-68.6,26.2-100.8,26.2c-35.6,0-62.8-5.6-81-16.6
		c-15.6-9.4-23.6-22.5-23.6-38.8c0-19.7,13.4-37.5,40-52.8c26.5-15.2,57.1-25,90.8-28.8c19.3-1.9,36.2-2.9,50.6-2.9
		c20.2,0,38.6,1.5,54.6,4.6c9.4-16,17.1-32.5,22.7-49c5.9-17.2,8.9-35.5,8.9-54.8c0-58.7-32.8-105.4-97.5-139.2
		c-57.1-29.9-126.9-45.1-207.3-45.1c-73.9,0-141.3,14.7-200.6,43.4c-59.3,28.9-92.4,64.4-98.5,105.6c-0.9,6.8-1.4,11.7-1.4,14.7
		c0,13.1,3.3,23,9.7,29.8c6,6.4,13.9,9.5,23.9,9.5c9.7,0,17.6-1.4,24.1-4.1c2.9-1.4,6.7-3.9,11.3-7.4c2-2.6,3.7-3.9,5.9-4.4
		c1.3-0.2,2.6-0.2,3.9,0.1c3.5,0.9,3.9,3.2,4.1,4.9c2.9,13.3-6,26.4-26.5,38.8c-14.4,8.7-32.1,13.2-52.6,13.2
		c-18.9,0-35.6-6.6-49.5-19.7c-15-13.9-22.6-32-22.6-53.9c0-54.7,38.2-103.8,113.6-146.1c78.3-44.6,173.5-67,282-67
		c103.3,0,191.2,16.3,261.4,48.4c83.6,38.3,126,94.3,126,166.8c0,26.2-6,51-18,73.4c-8.4,16-23.6,36.4-45.4,60.6
		c37.1,13.6,72.4,38.7,105.1,74.6c39.5,43.4,59.6,88.5,59.6,133.7c0,108.7-54.2,200.1-161.1,271.6C744.2,964.5,613,1000,459.1,1000z
		 M221.9,695.2c-28.1,0-51.3,11.5-68.9,34c-18,23-27.2,49.8-27.2,79.5c0,59,36.1,106.6,107.3,141.4c62.7,30.7,138.7,46.3,225.7,46.3
		c151.7,0,280.9-35.1,384.4-104.3c106-70.9,159.8-161.6,159.8-269.5c0-44.8-19.8-89.4-58.9-132.2c-32.9-36.1-68.2-61-105.2-74
		l-2.4-0.8l1.2-1.3c22.2-24.5,37.8-45.1,46.2-61.4c11.8-22.2,17.7-46.6,17.7-72.6c0-71.5-41.6-126.7-123.7-164.2
		c-68.8-31.6-155.2-47.6-256.5-47.6c-106.4,0-199.7,22.1-277.1,65.7c-74.3,41.6-111.9,90.1-111.9,143.7c0,21.3,7.3,38.8,21.6,52.2
		c12.6,11.9,27.2,17.9,43.3,17.9c18.6,0,34-3.9,47.2-11.9c19.3-11.7,27.7-23.9,24.9-36.3l0,0c-0.1,0.1-0.3,0.3-0.4,0.5l-0.3,0.3
		c-5,4-9.2,6.8-12.7,8.4c-7.9,3.3-17.4,5-28.7,5c-12.9,0-23.1-3.9-30.3-11.6c-6.8-7.2-10.4-17.8-10.4-31.3c0-3.1,0.5-8.1,1.4-15
		c6.2-42.1,40-78.4,100.6-107.8c60.6-29.4,129.8-44.5,205.5-44.5c82.4,0,153.9,15.6,212.3,46.2c66,34.4,99.5,82,99.5,141.6
		c0,19.4-3,38-8.9,55.3c-5.9,17.3-14,34.6-24,51.3l-1,1.8l-3.5-0.7c-16.1-3.3-34.8-5-55.6-5c-13.9,0-30.4,0.9-49.1,2.9
		c-32.1,3.7-61.5,13.1-87,27.7c-25.3,14.7-38.3,31.6-38.3,50.5c0,15.5,7.3,27.7,22,36.6c16.8,10.2,42.2,15.4,75.6,15.4
		c30.2,0,62.5-8.5,95.8-25.2c28.5-14.2,52.2-31.2,70.5-50.3l2.2-2.3l3.5,1.8c29.3,15.7,52.9,38.2,70.3,66.6
		c17.3,28.4,26.2,59.8,26.2,93.3c0,103.8-47,189.8-139.7,255.5c-87.8,62.6-196.5,94.3-323.3,94.3c-71.9,0-133.7-11.2-183.6-33.6
		c-58.5-26.1-88.2-63-88.2-109.8c0-15.7,4.2-30,12.3-42.5c8.5-13.1,21.5-19.7,38.3-19.7c11.8,0,21.6,3.3,29.4,10
		c5.4,4.4,9.6,9.7,12.5,16.2c1.8,4.1,3.1,6.3,3.9,7.3c0.9-0.6,2.1-1.4,3.8-3c6-5.5,10.4-11.5,12.9-17.5c2.6-6.2,3.8-15.4,3.8-27.3
		c0-13.3-5.8-24.5-17.2-33.3C258.2,699.4,242.6,695.2,221.9,695.2z M324.6,884.8c-2.4,0-4.5-0.1-6.2-0.2c-5.9,0-15.4-1.3-15.4-8.6
		c0-2.2,0.9-4,2.6-5.4c1.2-1.1,6-4.7,31-20.3c14.2-8.7,21.4-16.5,21.4-23.4V302c0-11.1-4.2-19.1-12.3-23.7c-11-3.4-18.4-6-22.4-7.7
		c-4.9-2.1-7.3-4.5-7.3-7.3c0-2.7,2.5-5.2,7.5-7c4.1-2.7,11.4-6.5,22.3-11.5c34.6-15.5,55.5-25.1,62.2-28.4
		c11.4-5.7,30.7-16.3,57.2-31.3c26-15.1,35.2-18.3,39.6-19.2c3.3-1.1,6.2-1.4,8.7-0.8c3.9,1,4.5,3.8,4.5,5.7c0,1.4-0.8,3.1-2.4,5.2
		c-17.7,23.4-30.3,46.4-37.4,68.2c-8.7,26.8-13,56.3-13,87.7v495.8c0,6.8,7.1,14.4,20.9,22.9c27.4,16.5,30,18.7,30.8,19.4
		c1.2,0.9,2,2.2,2.5,3.9c0.5,1.1,0.8,2.2,0.8,3.1c0,5-5.8,7.9-16.1,7.9c-5.5,0.3-19.5-0.1-43.3-1.5c-23.5-1.4-39.8-1.9-48.7-1.9
		c-15,0-38,0.9-68.4,2.9C335.7,884.6,329.4,884.8,324.6,884.8z M510.1,168.1c-0.4,0.1-0.9,0.2-1.7,0.5l-0.8,0.2
		c-3.8,0.7-13.4,4.5-37.3,18.3c-26.6,15.1-45.9,25.8-57.5,31.5c-6.7,3.4-27.7,13.1-62.5,28.6c-10.8,4.8-18,8.6-21.6,11.1l-0.4,0.2
		l-0.5,0.1c-3.4,1.3-5,2.5-5,4.2s1.6,3.3,4.9,4.7c3.9,1.6,11.3,4.2,22,7.6l0.8,0.3c9.6,5.3,14.4,14.1,14.4,26.4v525.1
		c0,7.6-7.7,16.3-23,25.7c-24.5,15.2-29.5,18.8-30.2,19.6l-0.1,0.2c-1,0.9-1.6,2.1-1.6,3.7c0,4.5,4.2,5.2,8.7,5.2h0.5
		c4.5,0.3,12.3,0.1,23.4-0.6c30.7-1.9,53.9-2.9,69.1-2.9c9.2,0,25.5,0.7,49.5,2.1c28.9,1.6,38.6,1.7,41.7,1.4h0.5
		c6.7,0,9.4-1.3,9.4-4.4c0-0.6-0.3-1.4-0.7-2.4c-0.5-1.6-1.2-2.4-1.7-2.8l-0.3-0.2c-0.7-0.7-5.4-4-29.9-18.7
		c-15-9.1-22.6-17.5-22.6-25.1V331.8c0-31.5,4.3-61.3,13.1-88.2c7.2-22.1,19.9-45.3,37.8-68.9c1.6-2.2,2-3.3,2-3.9
		C510.8,169.2,510.4,168.5,510.1,168.1z M632.7,495.5c-8.7,0-17.6-1.3-26.6-3.7c-15.9-4.1-24-11.9-24-23.3
		c0-12.3,10.2-22.9,30.4-31.6c16.4-6.8,30.2-10.5,42.4-11.6c11.8-1,21.3-1.5,29.1-1.5c23.7,0,45.4,2.5,64.4,7.7l2.6,0.7l-0.9,1.4
		c-10.6,16.5-27.3,31.1-49.6,43.2C677.8,489.2,655,495.5,632.7,495.5z M684.1,427.5c-7.3,0-16.8,0.5-27.9,1.4
		c-10.8,0.9-23.9,4.5-39,10.8c-18.5,8-27.9,17.6-27.9,28.9c0,10.1,6.6,16.6,20.2,20.2c8,2.2,15.9,3.2,23.4,3.2
		c20.3,0,41.3-5.8,62.7-17.4c21-11.5,36.9-25,47.2-40.4C725.3,429.7,705.6,427.5,684.1,427.5z"/>
</g>
<g>
	<path class="st0" d="M538.8,761.1c-1.8,0-4.7-0.1-8.8-0.2c-5.1-0.2-9.2-0.3-12.1-0.3c-3.7,0-8,0.1-12.9,0.3c-5,0.2-7.9,0.3-8.8,0.3
		c-4.1,0-4.6-0.9-4.6-1.4c0-0.6,0.7-1.1,1.8-1.8l0,0c0.7-0.3,3.9-1.5,10.1-3.6c4.5-1.5,6.8-2.9,7.1-3.9l17.7-185.2
		c0-1.3-1.7-2.6-5.2-4.1c-2.9-1.1-5.9-2.3-8.8-3.4c-1.2-0.5-1.7-1-1.7-1.7c0-0.5,0.4-0.9,1.3-1.1c1-0.3,2.6-0.3,4.7-0.2
		c2.2,0,4.2,0,5.8,0.1c7.6,0.3,12.5,0.6,14.6,0.6c3.1,0,7.3-0.1,12.3-0.3c5.1-0.2,8.3-0.2,9.7-0.2c2.6,0,4.2,0.6,4.2,1.5
		c0,0.5-0.4,0.9-1,1.3h-0.1c-3.5,1.1-6.2,2.2-8,2.9c-3.7,1.4-5.6,3.1-5.9,4.9c0,4.4,1.7,66,5.1,69.9c3.4,3.9,8.3,7.3,14.4,10.2
		c6.2,3,13.6,5.6,22.2,8.1c7.5,2.1,15,4,22.4,6.1c9.1,2.5,17.1,5.5,23.9,8.6c7.7,3.6,15,7.8,21.4,12.4c4.6,3.2,8.1,6.3,10.8,9.2
		l-7.6-66.8c-0.3-1.3-2.5-2.6-6.7-4.1c-8.3-2.9-9.7-3.4-10-3.6c-1-0.6-1.6-1.1-1.6-1.6c0-0.6,0.7-1.4,4.9-1.4c2.5,0,4.6,0,6.3,0.1
		c8.4,0.3,14,0.6,16.5,0.6c4.9,0,9.8-0.1,14.8-0.3c7-0.2,8.3-0.3,8.8-0.3c2.5,0,3.8,0.5,3.8,1.4c0,0.6-0.5,1.1-1.4,1.7h-0.1
		c-3.8,1.5-6.7,2.6-8.9,3.4c-3.9,1.6-5.9,3-5.9,4.1L698,814.6c0,1,1.3,1.9,3.8,3c4.2,1.4,8.5,2.9,12.9,4.2l0,0
		c1.4,0.6,2.2,1.1,2.2,1.9c0,1-1.6,1.6-4.5,1.6c-2.5,0-4.6,0-6.3-0.1c-8.4-0.3-14.2-0.6-16.9-0.6c-5,0-8.9,0.1-11.9,0.2
		c-3,0.1-6.4,0.2-10.4,0.5h-0.1c-4.3,0-5-0.9-5-1.5c0-0.5,0.8-1.1,2.2-1.9h0.1c3.7-1.4,6.6-2.5,8.3-3.2c3.3-1.4,5-2.8,5-3.9
		l-3.5-94.3c-2.6,2.9-6.3,5.4-11.2,7.6c-7,3.1-14.7,4.7-22.8,4.7c-8.1,0-15.4-1.3-21.3-3.7s-8.8-5.8-8.8-10c0-3.1,2-5.7,5.6-7.9
		c3.8-2.3,8.7-3.4,14.3-3.4c2.2,0,4.1,0,5.5,0.2c1.6,0.1,2.9,0.5,3.9,1c1,0.6,1.4,1,1.4,1.5c0,0.6-1,0.9-2.6,0.9
		c-1.3,0-2.4,0.1-3.3,0.3c-0.9,0.2-1.7,0.8-2.4,1.5c-0.7,0.8-1,1.8-1,3.1c0,0.8,0.1,1.5,0.4,1.8c1,2.1,3.3,3.6,6.6,4.5
		c2.4,0.7,5.2,1,8.3,1c5.5,0,10.1-1.5,13.8-4.4c3.8-3,5.8-6.4,5.8-10.3s-1.7-7.3-5-10.2c-2.5-2.2-7.6-5.2-15.4-8.7
		c-6.8-3.2-15.2-6.2-24.7-8.9c-24.7-7-38.3-11.1-41.9-12.4c-8.3-3.2-15.9-7.2-22.7-11.8c-5-3.4-9.1-6.8-12.1-10.1l-14.4,104.2
		c0,1.1,1.6,2.5,4.9,3.9c2.6,1.1,5.4,2.4,8.1,3.4h0.1c1,0.6,1.4,1.1,1.4,1.7c0,0.9-1.4,1.5-4.2,1.5
		C539.9,761.1,539.4,761.1,538.8,761.1z M518.1,759.7c3,0,7.1,0.1,12.3,0.3c6.3,0.3,8.7,0.3,9.6,0.2h0.1c1.7,0,2.4-0.2,2.4-0.8
		c0-0.5-0.4-0.9-1.2-1.4c-2.6-1.1-5.4-2.3-8.1-3.4c-3.4-1.5-5.2-3-5.2-4.4L543,642.4l1.6,1.9c3.1,3.8,7.7,7.7,13.6,11.7
		c6.7,4.6,14.3,8.5,22.4,11.7c3.4,1.4,17.5,5.5,41.7,12.4c9.6,2.8,18.1,5.8,24.9,9.1c7.7,3.7,13,6.6,15.5,8.8
		c3.4,2.9,5.1,6.4,5.1,10.4c0,4-2,7.6-5.9,10.7c-4.1,3.2-9.2,4.8-15.5,4.8c-3.5,0-6.7-0.3-9.4-1.1c-3.8-1-6.3-2.6-7.3-4.8
		c-0.3-0.5-0.4-1-0.4-1.9c0-1.3,0.4-2.4,1-3.2c0.8-0.9,1.7-1.5,3-1.8s2.8-0.6,4.6-0.6c0.5,0,0.8,0,0.8-0.3c0-0.2-0.4-0.7-1.2-1.1
		c-0.8-0.5-1.7-0.7-2.8-0.8c-1.2-0.1-2.9-0.1-5-0.1c-5,0-9.1,1-12.6,3.1c-3.5,2.1-5.4,4.7-5.4,7.7c0,4,2.9,7.2,8.4,9.5
		c5.5,2.3,12.2,3.4,19.8,3.4c7.6,0,14.8-1.5,21.4-4.5c5.8-2.6,10-5.7,12.5-9.3l1.6-2.3l3.9,98.8c0,1.4-1.8,2.9-5.4,4.4
		c-1.8,0.8-4.6,1.8-8.3,3.3c-1.6,0.9-2,1.4-2,1.6c0,0.5,0.4,0.8,3,0.8c3.8-0.1,7.3-0.2,10.2-0.5c3-0.1,7.2-0.2,12.2-0.2
		c2.9,0,8.5,0.2,17.1,0.6c1.6,0.1,3.7,0.1,6,0.1c1.8,0,2.5-0.2,2.5-0.9c0-0.6-0.5-1-1.7-1.5c-4.3-1.4-8.7-2.9-12.9-4.2
		c-2.9-1.1-4.3-2.3-4.3-3.4l-14.7-191.6c0-1.4,2.1-2.9,6.4-4.6c2.2-0.8,5.1-1.9,8.8-3.4c0.8-0.5,1.2-0.9,1.2-1.3
		c0-0.6-0.8-0.7-2-0.7c-0.4,0-2.2,0-8.5,0.3c-5.1,0.2-10.2,0.3-15.1,0.3c-2.6,0-8.3-0.2-16.8-0.6c-1.7-0.1-3.7-0.1-6-0.1
		c-2.6,0-2.9,0.3-2.9,0.7s0.4,0.8,1.3,1.3c0.3,0.1,1.7,0.7,9.7,3.4c4.6,1.6,7.1,3.2,7.2,4.6l8.3,72.5l-2.2-3
		c-2.6-3.4-7-7.4-12.9-11.6c-6.4-4.6-13.5-8.7-21.3-12.3c-6.8-3.1-14.7-6-23.6-8.5c-7.5-1.9-15-4-22.4-6.1
		c-8.7-2.5-16.3-5.3-22.6-8.2c-6.3-3-11.3-6.5-14.7-10.4c-3.4-3.9-5.1-65.8-5.1-70.1c0.3-1.9,2.4-3.8,6.4-5.3c2-0.8,4.6-1.7,8.1-2.9
		c0.5-0.2,0.8-0.6,0.8-0.9c0-0.6-0.7-0.8-2.4-0.8H561c-0.8,0-3.1,0-9.3,0.2c-5.1,0.2-9.3,0.3-12.6,0.3c-2.1,0-7.1-0.2-14.8-0.6
		c-1.6-0.1-3.4-0.1-5.6-0.1h-0.1c-1.6-0.1-2.6,0-3.3,0.1c-0.4,0.1-0.7,0.3-0.7,0.6c0,0.5,0.4,0.9,1.3,1.3c2.9,1.1,5.9,2.4,8.8,3.4
		c3.7,1.6,5.6,3.2,5.6,4.6l-17.5,185.2c-0.3,1.3-2.8,2.8-7.6,4.4c-7.3,2.5-9.4,3.2-10,3.4c-1,0.6-1.6,1-1.6,1.5
		c0,0.3,0.3,0.7,2.8,0.7c0.7,0,2.5,0,8.5-0.3C510,759.8,514.3,759.7,518.1,759.7z"/>
</g>
<polygon class="st1" points="-518.2,229.2 -530.1,222.5 -541.5,230.1 -539.8,214.9 -549.6,204.5 -536.7,201.9 -531.3,188 
	-525,201.5 -511.9,203.2 -521,214.2 "/>
</svg>
