<?xml version="1.0" encoding="utf-8"?>
<!-- Generator: Adobe Illustrator 26.0.3, SVG Export Plug-In . SVG Version: 6.00 Build 0)  -->
<svg version="1.1" id="Layer_1" xmlns="http://www.w3.org/2000/svg" xmlns:xlink="http://www.w3.org/1999/xlink" x="0px" y="0px"
	 viewBox="0 0 1085 1085" style="enable-background:new 0 0 1085 1085;" xml:space="preserve">
<style type="text/css">
	.st0{fill:#FF0000;}
</style>
<polygon class="st0" points="802.9,958 995,524.5 768.9,140 316.6,140 90.5,524.5 282.1,958 23.5,518.5 283,77.5 802,77.5 
	1061.5,518.5 "/>
<polygon class="st0" points="732.5,878 872.5,547.4 707.7,254.2 378.1,254.2 213.3,547.4 353,878 164.5,542.8 353.6,206.5 
	731.9,206.5 921,542.8 "/>
<polygon class="st0" points="678.6,797 779.2,552.6 660.8,335.7 424,335.7 305.6,552.6 405.9,797 270.5,549.2 406.4,300.5 
	678.1,300.5 814,549.2 "/>
<polygon class="st0" points="646.7,710 723.4,550.7 633.1,409.5 452.6,409.5 362.3,550.7 438.8,710 335.5,548.5 439.1,386.5 
	646.4,386.5 750,548.5 "/>
<polygon class="st0" points="621.6,658 679.9,550.2 611.3,454.5 474.3,454.5 405.8,550.2 463.9,658 385.5,548.7 464.1,439 
	621.4,439 700,548.7 "/>
<polygon class="st0" points="470.1,635.8 540.4,512 613.1,635.3 616.4,892.1 595.2,892.3 591.9,628.3 540.5,549.3 498.7,623.2 
	493.9,629.6 497.3,893.6 473.4,893.9 "/>
</svg>
